<svg xmlns="http://www.w3.org/2000/svg" xmlns:xlink="http://www.w3.org/1999/xlink" width="51.789" height="51.789" viewBox="0 0 51.789 51.789"><defs><style>.a{fill:#fff;}.b{clip-path:url(#a);}</style><clipPath id="a"><rect class="a" width="51.789" height="51.789"/></clipPath></defs><g transform="translate(0)"><g class="b" transform="translate(0)"><path class="a" d="M0,51.789H51.789V0H0Zm48.141-3.647H3.647V35.075a5.332,5.332,0,0,0,3.74,1.465c2.5,0,3.787-1.424,4.926-2.681,1.088-1.2,2.116-2.338,4.161-2.338s3.073,1.136,4.162,2.338c1.137,1.257,2.427,2.681,4.926,2.681s3.788-1.424,4.926-2.681c1.089-1.2,2.116-2.338,4.162-2.338s3.073,1.136,4.161,2.338c1.138,1.257,2.428,2.681,4.926,2.681a5.719,5.719,0,0,0,4.405-2.115Zm0-16.7c-.372.354-.7.715-1,1.044-1.056,1.166-1.817,2.008-3.407,2.008s-2.351-.842-3.406-2.008c-1.151-1.271-2.726-3.011-5.681-3.011s-4.531,1.74-5.682,3.011c-1.055,1.166-1.817,2.008-3.406,2.008s-2.351-.842-3.407-2.008c-1.151-1.271-2.726-3.011-5.681-3.011s-4.53,1.74-5.681,3.012c-1.055,1.165-1.817,2.007-3.406,2.007s-2.352-.842-3.407-2.008c-.107-.118-.218-.241-.334-.365V27.965a5.336,5.336,0,0,0,3.74,1.465c2.5,0,3.787-1.424,4.926-2.682,1.088-1.2,2.116-2.337,4.161-2.337s3.073,1.136,4.162,2.338c1.137,1.257,2.427,2.681,4.926,2.681S29.35,28,30.488,26.747c1.089-1.2,2.116-2.337,4.162-2.337s3.073,1.136,4.161,2.338c1.138,1.257,2.428,2.681,4.926,2.681a5.722,5.722,0,0,0,4.405-2.115Zm0-7.111c-.372.354-.7.715-1,1.045-1.056,1.166-1.817,2.007-3.407,2.007s-2.351-.841-3.406-2.007C39.179,24.1,37.6,22.36,34.649,22.36s-4.531,1.741-5.682,3.012c-1.055,1.166-1.817,2.007-3.406,2.007s-2.351-.841-3.407-2.007C21,24.1,19.429,22.36,16.474,22.36s-4.53,1.741-5.681,3.012c-1.055,1.166-1.817,2.007-3.406,2.007s-2.352-.841-3.407-2.007q-.161-.178-.334-.366V20.853a5.332,5.332,0,0,0,3.74,1.465c2.5,0,3.787-1.424,4.926-2.681,1.088-1.2,2.116-2.338,4.161-2.338s3.073,1.136,4.162,2.338c1.137,1.257,2.427,2.681,4.926,2.681s3.788-1.424,4.926-2.681c1.089-1.2,2.116-2.338,4.162-2.338s3.073,1.136,4.161,2.338c1.138,1.257,2.428,2.681,4.926,2.681A5.719,5.719,0,0,0,48.141,20.2Zm0-7.111c-.372.354-.7.715-1,1.044-1.056,1.166-1.817,2.008-3.407,2.008s-2.351-.842-3.406-2.008C39.179,16.99,37.6,15.25,34.649,15.25s-4.531,1.74-5.682,3.011c-1.055,1.166-1.817,2.008-3.406,2.008s-2.351-.842-3.407-2.008C21,16.99,19.429,15.25,16.474,15.25s-4.53,1.74-5.681,3.011c-1.055,1.166-1.817,2.008-3.406,2.008s-2.352-.842-3.407-2.008c-.107-.118-.218-.241-.334-.365V3.647H48.141Z"/></g></g></svg>