<svg xmlns="http://www.w3.org/2000/svg" xmlns:xlink="http://www.w3.org/1999/xlink" width="51.788" height="51.789" viewBox="0 0 51.788 51.789"><defs><style>.a{fill:#fff;}.b{clip-path:url(#a);}.c{fill:#161615;}</style><clipPath id="a"><rect class="a" width="51.788" height="51.789"/></clipPath></defs><g transform="translate(0)"><g class="b" transform="translate(0)"><path class="a" d="M0,51.789H51.788V0H0ZM3.653,3.654h5.21a7.34,7.34,0,0,1-5.21,5.611Zm0,7.168A8.853,8.853,0,0,0,10.4,3.654h2.515A11.34,11.34,0,0,1,3.653,13.36Zm0,4.067A12.852,12.852,0,0,0,14.432,3.654h2.5A15.338,15.338,0,0,1,3.653,17.4Zm0,4.029A16.847,16.847,0,0,0,18.444,3.654h2.413A19.258,19.258,0,0,1,3.653,21.34Zm41.5,29.218L43.05,46.03l1.935-.1h0l2.208,2.21Zm2.98-2L28.868,26.87l-1.692-1.691,2.472-2.471-3.479-3.479L23.7,21.7l-.868-.867-1.452,1.451,6.038,6.038,2.6,2.6-2.489,2.49L42.251,48.136H3.653V22.857a20.579,20.579,0,0,0,12.695-5.981A20.577,20.577,0,0,0,22.371,3.654H48.135Zm-5.1-2.163-1.935.1L30.433,33.414,31.452,32.4ZM26.743,22.708l-1.018,1.019h0l-.574-.575,1.02-1.019Z"/><line class="c" y2="1.515" transform="translate(0 21.365)"/><line class="c" y2="1.518" transform="translate(0 17.432)"/><line class="c" y2="1.544" transform="translate(0 9.337)"/><line class="c" y2="1.524" transform="translate(0 13.406)"/></g></g></svg>