<svg xmlns="http://www.w3.org/2000/svg" xmlns:xlink="http://www.w3.org/1999/xlink" width="51.791" height="51.791" viewBox="0 0 51.791 51.791"><defs><style>.a{fill:#fff;}.b{clip-path:url(#a);}</style><clipPath id="a"><rect class="a" width="51.791" height="51.791"/></clipPath></defs><g transform="translate(-0.001)"><g class="b" transform="translate(0.001)"><path class="a" d="M0,51.791H51.791V0H0Zm26.541-26.56a53.409,53.409,0,0,1,11.374-5.41,37.969,37.969,0,0,1,5.275-1.347,64.244,64.244,0,0,1,2.2,14.178,39.438,39.438,0,0,1-1.428,12.737,26.3,26.3,0,0,1-1,2.75H21.067q.566-.637,1.1-1.347c4.084-5.419,5.553-12.671,4.37-21.561M45.928,45.957a41.531,41.531,0,0,0,1.505-13.425,65.568,65.568,0,0,0-2.194-14.35,26.37,26.37,0,0,1,2.9-.156V48.139H45.174q.414-1.058.755-2.182M37.273,17.874a54.743,54.743,0,0,0-11.963,5.71,27.083,27.083,0,0,1-9.967-6.755,31.073,31.073,0,0,1-3.84-5.075,62.492,62.492,0,0,1,12.067-6.56q2.147-.874,4.273-1.542h20.3V15.975a34.569,34.569,0,0,0-10.866,1.9M10.48,9.962q-.554-1.04-1.053-2.138A40.1,40.1,0,0,1,7.818,3.652H21.94a63.833,63.833,0,0,0-11.46,6.31M7.532,8.606A35.047,35.047,0,0,0,13.819,18.2,29.115,29.115,0,0,0,24.5,25.467c.953,7.128.12,13.093-2.478,17.785A41.86,41.86,0,0,1,6.919,34.867a35.909,35.909,0,0,1-3.267-3.305V3.652H5.663A42.8,42.8,0,0,0,7.532,8.606M5.511,36.358a43.651,43.651,0,0,0,15.4,8.687q-.174.247-.356.489a19.207,19.207,0,0,1-2.363,2.6H3.652V34.582q.9.916,1.859,1.776"/></g></g></svg>