<svg xmlns="http://www.w3.org/2000/svg" xmlns:xlink="http://www.w3.org/1999/xlink" width="51.789" height="51.789" viewBox="0 0 51.789 51.789"><defs><style>.a{fill:#fff;}.b{clip-path:url(#a);}</style><clipPath id="a"><rect class="a" width="51.789" height="51.789"/></clipPath></defs><g transform="translate(0)"><g class="b" transform="translate(0)"><path class="a" d="M51.7,43.913V0H0V51.789H51.7V44.065l.085-.085ZM28.043,48.136,18.353,29.1l.854-.855L31.623,48.136ZM24.387,13.4l3.363,3.382L17.074,27.394l-3.327-3.332ZM12.3,22.613l-2.6-2.6A7.538,7.538,0,1,1,20.354,9.34l2.591,2.611ZM34.037,48.136,20.692,26.761l.6-.6L39.161,48.136Zm7.763,0L22.749,24.7l.411-.41L46.967,48.136Zm6.257-1.806L24.607,22.84l.551-.552,22.9,18.677Zm0-8.009L26.612,20.831l.6-.6L48.057,33.282Zm0-7.456L28.7,18.74l.7-.7,18.66,9.519Zm0-5.6L29.809,15.952l-4.688-4.715L21.805,7.895l0,0A9.587,9.587,0,0,0,8.257,21.461l4.044,4.05,3.933,3.939,9.513,18.686H3.647V3.653h44.41Z"/></g></g></svg>