<svg xmlns="http://www.w3.org/2000/svg" xmlns:xlink="http://www.w3.org/1999/xlink" width="51.789" height="51.789" viewBox="0 0 51.789 51.789"><defs><style>.a{fill:#fff;}.b{clip-path:url(#a);}</style><clipPath id="a"><rect class="a" width="51.789" height="51.789"/></clipPath></defs><g transform="translate(0)"><g class="b" transform="translate(0)"><path class="a" d="M0,51.789H51.789V0H0ZM22.781,3.647c0,.1,0,.209,0,.314a18.832,18.832,0,0,1-4.815,12.592l-1.314-1.314A16.984,16.984,0,0,0,20.929,3.961c0-.105,0-.21-.006-.314Zm-3.907,0c0,.1.006.209.006.314a14.949,14.949,0,0,1-3.675,9.827l-1.373-1.374a13.007,13.007,0,0,0,3.112-8.453c0-.105,0-.21,0-.314Zm-5.927,0h1.941c0,.1.006.209.006.314a10.979,10.979,0,0,1-2.516,7L11,9.581a9.034,9.034,0,0,0,1.956-5.62c0-.105,0-.21-.007-.314m-4.093,0H10.9c0,.1.008.209.008.314A6.992,6.992,0,0,1,9.538,8.12L8.074,6.656a4.957,4.957,0,0,0,.792-2.694c0-.105,0-.21-.011-.314m-2.055,0c.01.1.017.208.017.314a2.93,2.93,0,0,1-.25,1.187l-1.5-1.5ZM3.647,5.128,5.138,6.619a2.926,2.926,0,0,1-1.265.287c-.076,0-.15,0-.226-.009Zm0,3.821c.075,0,.15.006.226.006a4.965,4.965,0,0,0,2.764-.838L8.1,9.578a7,7,0,0,1-4.226,1.415c-.075,0-.15,0-.226,0Zm0,4.089.226,0a9.03,9.03,0,0,0,5.683-2.005l1.378,1.378a10.964,10.964,0,0,1-7.061,2.568c-.075,0-.15,0-.226,0Zm0,3.989c.075,0,.15,0,.226,0a13.008,13.008,0,0,0,8.515-3.163l1.372,1.373a14.946,14.946,0,0,1-9.887,3.726c-.075,0-.15,0-.226,0Zm0,3.987.226,0A16.984,16.984,0,0,0,15.21,16.692l1.316,1.314A18.842,18.842,0,0,1,3.873,22.874l-.226,0Zm0,3.907.226,0A20.986,20.986,0,0,0,24.835,3.961c0-.105,0-.21,0-.314h23.31V23.56a39.173,39.173,0,0,0-14.606,8.615L30.5,29.142,32.054,27.6l-9.676-5.194,4.876,9.948,1.79-1.774h0l3.005,3.007-.056.056a40.843,40.843,0,0,0-9.528,14.5H3.647Zm44.494,21.86L34.986,33.625a37.377,37.377,0,0,1,13.156-7.913ZM24.66,48.141a39.1,39.1,0,0,1,8.785-13.047l.056-.056,13.1,13.1Z"/></g></g></svg>