<svg xmlns="http://www.w3.org/2000/svg" width="51.789" height="51.789" viewBox="0 0 51.789 51.789"><defs><style>.a{fill:#fff;}</style></defs><path class="a" d="M40.188,42.568l7.953-2.485V48.14h-9.2ZM16.564,37.193l12.17-3.762,9.46,8.664L36.836,48.14H14.105ZM3.647,28.375l1.494-.462L13.5,35.568l1.036.954L11.925,48.14H3.647ZM30.2,31.939l2.828-12.595,12.2-3.771,2.919,2.675V37.936L39.6,40.6Zm-15.312,2.12L6.539,26.368l1.729-7.7,1.084-4.83,1.43-.447,10.827-3.348,5.666,5.189,3.744,3.45L28.194,31.262l-12.2,3.811ZM3.647,9.992l2.6,2.385,1.1,1.013L4.539,25.92l-.891.278ZM46.7,14.145l1.445-6.437v7.761ZM7.637,10.865,3.647,7.19V3.646H21.994l-.989,4.405L10.18,11.433l-1.438.445Zm21.02,2.857L23.043,8.549l1.1-4.9H46.952l-2.2,9.778L32.509,17.25ZM0,51.788H51.789V0H0Z" transform="translate(0 0.001)"/></svg>