<svg xmlns="http://www.w3.org/2000/svg" xmlns:xlink="http://www.w3.org/1999/xlink" width="51.79" height="51.789" viewBox="0 0 51.79 51.789"><defs><style>.a{fill:#fff;}.b{clip-path:url(#a);}</style><clipPath id="a"><rect class="a" width="51.79" height="51.789"/></clipPath></defs><g transform="translate(-0.001)"><g class="b" transform="translate(0.001)"><path class="a" d="M0,51.789H51.79V0H0ZM3.65,3.65H48.14V8c-.5-.025-.994-.04-1.495-.04H3.65ZM29.295,16.575a26.538,26.538,0,0,1,2.975-2.268h4.689a23.946,23.946,0,0,0-4.011,2.268Zm1.114,2.05a23.931,23.931,0,0,0-2.172,2.294H25.352a26.387,26.387,0,0,1,1.86-2.294Zm5.617-6.369a26.114,26.114,0,0,1,10.62-2.244q.753,0,1.495.043v2.25c-.494-.031-.992-.049-1.495-.049Zm-2.414,6.369h4.323a19.553,19.553,0,0,0-3.564,2.294h-3.38a21.934,21.934,0,0,1,2.621-2.294m3.337-2.05a21.741,21.741,0,0,1,9.7-2.268c.5,0,1,.019,1.495.053v2.275c-.493-.038-.991-.058-1.495-.058h-9.7Zm9.7,2.05c.5,0,1,.024,1.495.066v2.3a14.854,14.854,0,0,0-1.495-.074H37.99a17.39,17.39,0,0,1,8.655-2.294M3.65,10.012H36.033a28.015,28.015,0,0,0-4.4,2.244H3.65Zm0,4.294H28.782a28.771,28.771,0,0,0-2.156,1.948c-.106.106-.212.213-.314.32H3.65Zm0,4.319H24.5a27.8,27.8,0,0,0-1.656,2.294H3.65Zm0,29.514V22.968H21.64a28.153,28.153,0,0,0-3.307,13.307V48.139Zm16.732,0V36.275A26.106,26.106,0,0,1,24.01,22.968h2.7a23.78,23.78,0,0,0-3.987,13.211v11.96Zm4.391,0V36.179a21.762,21.762,0,0,1,4.45-13.211H32.2a19.479,19.479,0,0,0-5.1,13.162V48.139ZM29.141,36.13a17.466,17.466,0,0,1,5.976-13.162H39.08A15.959,15.959,0,0,0,31.217,36.66V48.139H29.141Zm19,12.009H33.267V36.66A13.766,13.766,0,0,1,37.2,27.033,13.008,13.008,0,0,1,48.14,23.055Z"/></g></g></svg>