<svg xmlns="http://www.w3.org/2000/svg" xmlns:xlink="http://www.w3.org/1999/xlink" width="51.789" height="51.789" viewBox="0 0 51.789 51.789"><defs><style>.a{fill:#fff;}.b{clip-path:url(#a);}</style><clipPath id="a"><rect class="a" width="51.789" height="51.789"/></clipPath></defs><g transform="translate(0)"><g class="b" transform="translate(0)"><path class="a" d="M0,51.789H51.789V0H0ZM3.653,3.653H18.23a36.111,36.111,0,0,1-6.346,8.541,36.314,36.314,0,0,1-8.231,6.193Zm0,17.048a38.216,38.216,0,0,0,9.681-7.058,38.186,38.186,0,0,0,7.216-9.99H40.763a27.322,27.322,0,0,1,1.994,4.91c-.2.009-.409.022-.614.036A36.281,36.281,0,0,0,19.092,19.4a36.289,36.289,0,0,0-10.8,23.05c-.012.183-.023.365-.033.548a27.347,27.347,0,0,1-4.6-1.846ZM43.28,10.6a27.9,27.9,0,0,1,.621,5.876A27.677,27.677,0,0,1,16.223,44.159a27.851,27.851,0,0,1-5.926-.633A34.193,34.193,0,0,1,20.543,20.851,34.172,34.172,0,0,1,43.28,10.6m4.856,37.531H3.653v-4.7a29.23,29.23,0,0,0,4.564,1.686q1.027.284,2.076.5a29.962,29.962,0,0,0,5.93.589A29.728,29.728,0,0,0,45.951,16.481a30.008,30.008,0,0,0-.577-5.876q-.209-1.05-.491-2.075a29.444,29.444,0,0,0-1.826-4.876h5.079Z"/></g></g></svg>