<svg xmlns="http://www.w3.org/2000/svg" xmlns:xlink="http://www.w3.org/1999/xlink" width="51.789" height="51.789" viewBox="0 0 51.789 51.789"><defs><style>.a{fill:#fff;}.b{clip-path:url(#a);}</style><clipPath id="a"><rect class="a" width="51.789" height="51.789"/></clipPath></defs><g transform="translate(0)"><path class="a" d="M289.979,326.587h3.061v-2.033h-3.056Z" transform="translate(-262.729 -294.061)"/><path class="a" d="M355.444,326.587h3.061v-2.033h-3.055Z" transform="translate(-322.042 -294.061)"/><path class="a" d="M420.939,326.587H424v-2.033h-3.055Z" transform="translate(-381.382 -294.061)"/><path class="a" d="M159.019,326.587h3.061v-2.033h-3.056Z" transform="translate(-144.075 -294.061)"/><path class="a" d="M224.5,326.587h3.06v-2.033H224.5Z" transform="translate(-203.402 -294.061)"/><path class="a" d="M93.539,326.587H96.6v-2.033H93.545Z" transform="translate(-84.749 -294.061)"/><g transform="translate(0)"><g class="b"><path class="a" d="M0,51.789H51.789V0H0ZM48.143,30.484H45.691l-.007,2.049h2.459V48.142H3.647V32.533H5.722V30.484H3.647V27.432h44.5Zm0-5.1H3.647V22.95a7.183,7.183,0,0,0,3.228-1.789,6.051,6.051,0,0,0,.9-1.14,6.456,6.456,0,0,0,6.007,3.224h0a8.007,8.007,0,0,0,5.206-2.084,6.051,6.051,0,0,0,.9-1.14,6.456,6.456,0,0,0,6.007,3.224h0A8.007,8.007,0,0,0,31.1,21.161a6.056,6.056,0,0,0,.9-1.14,6.453,6.453,0,0,0,6.006,3.224h0a8,8,0,0,0,5.205-2.084,6.023,6.023,0,0,0,.9-1.14,6.169,6.169,0,0,0,4.03,3Zm0-4.5a4.159,4.159,0,0,1-2.369-2.1,6.6,6.6,0,0,1-.684-2.627l-2.05,0a4.5,4.5,0,0,1-2.405,4.359,6.6,6.6,0,0,1-2.625.672h0a4.5,4.5,0,0,1-4.345-2.408,6.6,6.6,0,0,1-.684-2.627l-2.05,0a4.5,4.5,0,0,1-2.4,4.359A6.6,6.6,0,0,1,25.9,21.2h0a4.494,4.494,0,0,1-4.345-2.408,6.662,6.662,0,0,1-.686-2.627l-2.049,0a4.5,4.5,0,0,1-2.4,4.359,6.592,6.592,0,0,1-2.626.672h0a4.49,4.49,0,0,1-4.345-2.408A6.613,6.613,0,0,1,8.75,16.16l-1.025,0-1.026,0a4.5,4.5,0,0,1-2.4,4.359,5.816,5.816,0,0,1-.649.281V3.647h44.5Z"/></g></g></g></svg>