<svg xmlns="http://www.w3.org/2000/svg" width="51.791" height="51.791" viewBox="0 0 51.791 51.791"><defs><style>.a{fill:#fff;}</style></defs><path class="a" d="M30.9,47.2l-2.116-5.614h7.869v6.554H15.268l-.133-6.554h8.993l-2.55,4.992,1.781,1.045,3.162-6.037h.059l2.391,6.341Zm7.818-6.33,2.627,7.27H38.72Zm-25.567-.158.077,7.427H10.252Zm-9.5-4.692,7.291-20.135,8.166-7.8,4.409,9.067-8.6,14.022h0L8.079,48.138H3.653Zm11.353-.7L32.027,7.882,41.15,15.5l6.988,19.84v12.8h-4.6L36.656,29.08V39.52H15.093ZM21.025,7.309h8.924l-5.127,7.72ZM3.653,3.653H48.138V29.127L43.01,14.568l-.087-.246L32.191,5.245H18.986l-9.831,9.52-5.5,15.19ZM0,51.791H51.791V0H0Z"/></svg>